<svg xmlns="http://www.w3.org/2000/svg" viewBox="0 0 217 52" width="868" height="208" xmlns:c2pa="http://c2pa.org/manifest"><metadata><c2pa:manifest>AAAWgmp1bWIAAAAeanVtZGMycGEAEQAQgAAAqgA4m3EDYzJwYQAAABZcanVtYgAAAEdqdW1kYzJtYQARABCAAACqADibcQN1cm46YzJwYTo0MTBjMTU0Mi1jN2EzLTQwZmMtOWMwYy02N2U3OWQ2YTJlNTYAAAADl2p1bWIAAAApanVtZGMyYXMAEQAQgAAAqgA4m3EDYzJwYS5hc3NlcnRpb25zAAAAALxqdW1iAAAARGp1bWRjYm9yABEAEIAAAKoAOJtxE2MycGEuaW5ncmVkaWVudC52MwAAAAAYYzJzaNs+NiAq4SQ194vqIswQOWUAAABwY2JvcqNpZGM6Zm9ybWF0bWltYWdlL3N2Zyt4bWxqaW5zdGFuY2VJRHgseG1wOmlpZDo1YjUxYmQ1Ni02YTdkLTRhNWQtODE5OC05NmU1OWM4ZmEzY2RscmVsYXRpb25zaGlwaHBhcmVudE9mAAAB4mp1bWIAAABBanVtZGNib3IAEQAQgAAAqgA4m3ETYzJwYS5hY3Rpb25zLnYyAAAAABhjMnNoIKGXDQwaHw57mzsqSRGlrQAAAZljYm9yomdhY3Rpb25zgqJmYWN0aW9ua2MycGEub3BlbmVkanBhcmFtZXRlcnOha2luZ3JlZGllbnRzgaJjdXJseC1zZWxmI2p1bWJmPWMycGEuYXNzZXJ0aW9ucy9jMnBhLmluZ3JlZGllbnQudjNkaGFzaFgga7TVdS9VbOsUjRgyTKGvdSVFzVx0wxIPaWURagBHeB2kZmFjdGlvbngdY29tLmFudGhyb3BpYy5jbGF1ZGUucHJvdmlkZWRqcGFyYW1ldGVyc6F4H2NvbS5hbnRocm9waWMub3JpZ2luLWNvbmZpZGVuY2VndW5rbm93bmtkZXNjcmlwdGlvbnhmQ2xhdWRlIHByb3ZpZGVkIHRoaXMgZmlsZSBhdCB0aGUgcmVxdWVzdCBvZiBhIHVzZXIgYW5kIG1heSBoYXZlIGNyZWF0ZWQgb3IgbW9kaWZpZWQgdGhlIGZpbGUgY29udGVudHMubXNvZnR3YXJlQWdlbnShZG5hbWVmQ2xhdWRlcmFsbEFjdGlvbnNJbmNsdWRlZPUAAADIanVtYgAAAEBqdW1kY2JvcgARABCAAACqADibcRNjMnBhLmhhc2guZGF0YQAAAAAYYzJzaBp6py80Qu/6S7TsZb0hPTYAAACAY2JvcqVjYWxnZnNoYTI1NmNwYWRNAAAAAAAAAAAAAAAAAGRoYXNoWCD+4lBh6M1Ejzs40iUVnwb6eO6eXi+WA3CtfZUpp17pzWRuYW1lbmp1bWJmIG1hbmlmZXN0amV4Y2x1c2lvbnOBomVzdGFydBiVZmxlbmd0aBkeBAAAAj5qdW1iAAAAJ2p1bWRjMmNsABEAEIAAAKoAOJtxA2MycGEuY2xhaW0udjIAAAACD2Nib3KlY2FsZ2ZzaGEyNTZpc2lnbmF0dXJleE1zZWxmI2p1bWJmPS9jMnBhL3VybjpjMnBhOjQxMGMxNTQyLWM3YTMtNDBmYy05YzBjLTY3ZTc5ZDZhMmU1Ni9jMnBhLnNpZ25hdHVyZWppbnN0YW5jZUlEeCx4bXA6aWlkOmE4NzlhMzEzLWZmYTktNDZmMC04MjBhLTAwY2NlYjhlMjFkM3JjcmVhdGVkX2Fzc2VydGlvbnODomN1cmx4LXNlbGYjanVtYmY9YzJwYS5hc3NlcnRpb25zL2MycGEuaW5ncmVkaWVudC52M2RoYXNoWCBrtNV1L1Vs6xSNGDJMoa91JUXNXHTDEg9pZRFqAEd4HaJjdXJseCpzZWxmI2p1bWJmPWMycGEuYXNzZXJ0aW9ucy9jMnBhLmFjdGlvbnMudjJkaGFzaFggku2z/TJDj638LE3X+JA9eXd1Fvty49ONGktP5pySwyeiY3VybHgpc2VsZiNqdW1iZj1jMnBhLmFzc2VydGlvbnMvYzJwYS5oYXNoLmRhdGFkaGFzaFggPAPOFO7hwAG2eTlzrvCk24jkgHFNr11akZ9Bhnxexed0Y2xhaW1fZ2VuZXJhdG9yX2luZm+jZG5hbWVvQW50aHJvcGljIEZpbGVzZ3ZlcnNpb25lMS4wLjBrc3BlY1ZlcnNpb25lMi40LjAAABA4anVtYgAAAChqdW1kYzJjcwARABCAAACqADibcQNjMnBhLnNpZ25hdHVyZQAAABAIY2JvctKEWQISogEmGCFZAgowggIGMIIBjaADAgECAhRA5aAK7sI50L64g/oGQgU9Z1UTADAKBggqhkjOPQQDAzBJMRcwFQYDVQQKEw5BbnRocm9waWMsIFBCQzEuMCwGA1UEAxMlQW50aHJvcGljIENvbnRlbnQgQ3JlZGVudGlhbHMgUm9vdCBDQTAeFw0yNjA4MDcxODQzNTZaFw0yODA4MDYxOTQzNTZaMEQxFzAVBgNVBAoTDkFudGhyb3BpYywgUEJDMSkwJwYDVQQDEyBBbnRocm9waWMgQ2xhdWRlIENvbnRlbnQgU2lnbmluZzBZMBMGByqGSM49AgEGCCqGSM49AwEHA0IABJh6CmvLUBgFFNU0vUKlOVtE6djd17L5SuwX0LemFisBM3dkd/3cyjxFA3Qo5S46fX0/ihY0VZ7mfb9KF703t5OjWDBWMA4GA1UdDwEB/wQEAwIHgDAVBgNVHSUEDjAMBgorBgEEAYPoXgIBMAwGA1UdEwEB/wQCMAAwHwYDVR0jBBgwFoAUzlHiBIFOZFsj+OPEz5o+nMHXXMIwCgYIKoZIzj0EAwMDZwAwZAIwMXMdFJ4BetLLVY7ORuE9noqbbAZOZn/aArXyTwFAZfKrPzxF2vPoJNf1+UCdg1XGAjBwX1zd9WGqYkqmL5SFqw1QySjr1zJfpJM9+1rdDwSPLMOPOjKuiXjoU/pUUeG9RwmhY3BhZFkNngAAAAAAAAAAAAAAAAAAAAAAAAAAAAAAAAAAAAAAAAAAAAAAAAAAAAAAAAAAAAAAAAAAAAAAAAAAAAAAAAAAAAAAAAAAAAAAAAAAAAAAAAAAAAAAAAAAAAAAAAAAAAAAAAAAAAAAAAAAAAAAAAAAAAAAAAAAAAAAAAAAAAAAAAAAAAAAAAAAAAAAAAAAAAAAAAAAAAAAAAAAAAAAAAAAAAAAAAAAAAAAAAAAAAAAAAAAAAAAAAAAAAAAAAAAAAAAAAAAAAAAAAAAAAAAAAAAAAAAAAAAAAAAAAAAAAAAAAAAAAAAAAAAAAAAAAAAAAAAAAAAAAAAAAAAAAAAAAAAAAAAAAAAAAAAAAAAAAAAAAAAAAAAAAAAAAAAAAAAAAAAAAAAAAAAAAAAAAAAAAAAAAAAAAAAAAAAAAAAAAAAAAAAAAAAAAAAAAAAAAAAAAAAAAAAAAAAAAAAAAAAAAAAAAAAAAAAAAAAAAAAAAAAAAAAAAAAAAAAAAAAAAAAAAAAAAAAAAAAAAAAAAAAAAAAAAAAAAAAAAAAAAAAAAAAAAAAAAAAAAAAAAAAAAAAAAAAAAAAAAAAAAAAAAAAAAAAAAAAAAAAAAAAAAAAAAAAAAAAAAAAAAAAAAAAAAAAAAAAAAAAAAAAAAAAAAAAAAAAAAAAAAAAAAAAAAAAAAAAAAAAAAAAAAAAAAAAAAAAAAAAAAAAAAAAAAAAAAAAAAAAAAAAAAAAAAAAAAAAAAAAAAAAAAAAAAAAAAAAAAAAAAAAAAAAAAAAAAAAAAAAAAAAAAAAAAAAAAAAAAAAAAAAAAAAAAAAAAAAAAAAAAAAAAAAAAAAAAAAAAAAAAAAAAAAAAAAAAAAAAAAAAAAAAAAAAAAAAAAAAAAAAAAAAAAAAAAAAAAAAAAAAAAAAAAAAAAAAAAAAAAAAAAAAAAAAAAAAAAAAAAAAAAAAAAAAAAAAAAAAAAAAAAAAAAAAAAAAAAAAAAAAAAAAAAAAAAAAAAAAAAAAAAAAAAAAAAAAAAAAAAAAAAAAAAAAAAAAAAAAAAAAAAAAAAAAAAAAAAAAAAAAAAAAAAAAAAAAAAAAAAAAAAAAAAAAAAAAAAAAAAAAAAAAAAAAAAAAAAAAAAAAAAAAAAAAAAAAAAAAAAAAAAAAAAAAAAAAAAAAAAAAAAAAAAAAAAAAAAAAAAAAAAAAAAAAAAAAAAAAAAAAAAAAAAAAAAAAAAAAAAAAAAAAAAAAAAAAAAAAAAAAAAAAAAAAAAAAAAAAAAAAAAAAAAAAAAAAAAAAAAAAAAAAAAAAAAAAAAAAAAAAAAAAAAAAAAAAAAAAAAAAAAAAAAAAAAAAAAAAAAAAAAAAAAAAAAAAAAAAAAAAAAAAAAAAAAAAAAAAAAAAAAAAAAAAAAAAAAAAAAAAAAAAAAAAAAAAAAAAAAAAAAAAAAAAAAAAAAAAAAAAAAAAAAAAAAAAAAAAAAAAAAAAAAAAAAAAAAAAAAAAAAAAAAAAAAAAAAAAAAAAAAAAAAAAAAAAAAAAAAAAAAAAAAAAAAAAAAAAAAAAAAAAAAAAAAAAAAAAAAAAAAAAAAAAAAAAAAAAAAAAAAAAAAAAAAAAAAAAAAAAAAAAAAAAAAAAAAAAAAAAAAAAAAAAAAAAAAAAAAAAAAAAAAAAAAAAAAAAAAAAAAAAAAAAAAAAAAAAAAAAAAAAAAAAAAAAAAAAAAAAAAAAAAAAAAAAAAAAAAAAAAAAAAAAAAAAAAAAAAAAAAAAAAAAAAAAAAAAAAAAAAAAAAAAAAAAAAAAAAAAAAAAAAAAAAAAAAAAAAAAAAAAAAAAAAAAAAAAAAAAAAAAAAAAAAAAAAAAAAAAAAAAAAAAAAAAAAAAAAAAAAAAAAAAAAAAAAAAAAAAAAAAAAAAAAAAAAAAAAAAAAAAAAAAAAAAAAAAAAAAAAAAAAAAAAAAAAAAAAAAAAAAAAAAAAAAAAAAAAAAAAAAAAAAAAAAAAAAAAAAAAAAAAAAAAAAAAAAAAAAAAAAAAAAAAAAAAAAAAAAAAAAAAAAAAAAAAAAAAAAAAAAAAAAAAAAAAAAAAAAAAAAAAAAAAAAAAAAAAAAAAAAAAAAAAAAAAAAAAAAAAAAAAAAAAAAAAAAAAAAAAAAAAAAAAAAAAAAAAAAAAAAAAAAAAAAAAAAAAAAAAAAAAAAAAAAAAAAAAAAAAAAAAAAAAAAAAAAAAAAAAAAAAAAAAAAAAAAAAAAAAAAAAAAAAAAAAAAAAAAAAAAAAAAAAAAAAAAAAAAAAAAAAAAAAAAAAAAAAAAAAAAAAAAAAAAAAAAAAAAAAAAAAAAAAAAAAAAAAAAAAAAAAAAAAAAAAAAAAAAAAAAAAAAAAAAAAAAAAAAAAAAAAAAAAAAAAAAAAAAAAAAAAAAAAAAAAAAAAAAAAAAAAAAAAAAAAAAAAAAAAAAAAAAAAAAAAAAAAAAAAAAAAAAAAAAAAAAAAAAAAAAAAAAAAAAAAAAAAAAAAAAAAAAAAAAAAAAAAAAAAAAAAAAAAAAAAAAAAAAAAAAAAAAAAAAAAAAAAAAAAAAAAAAAAAAAAAAAAAAAAAAAAAAAAAAAAAAAAAAAAAAAAAAAAAAAAAAAAAAAAAAAAAAAAAAAAAAAAAAAAAAAAAAAAAAAAAAAAAAAAAAAAAAAAAAAAAAAAAAAAAAAAAAAAAAAAAAAAAAAAAAAAAAAAAAAAAAAAAAAAAAAAAAAAAAAAAAAAAAAAAAAAAAAAAAAAAAAAAAAAAAAAAAAAAAAAAAAAAAAAAAAAAAAAAAAAAAAAAAAAAAAAAAAAAAAAAAAAAAAAAAAAAAAAAAAAAAAAAAAAAAAAAAAAAAAAAAAAAAAAAAAAAAAAAAAAAAAAAAAAAAAAAAAAAAAAAAAAAAAAAAAAAAAAAAAAAAAAAAAAAAAAAAAAAAAAAAAAAAAAAAAAAAAAAAAAAAAAAAAAAAAAAAAAAAAAAAAAAAAAAAAAAAAAAAAAAAAAAAAAAAAAAAAAAAAAAAAAAAAAAAAAAAAAAAAAAAAAAAAAAAAAAAAAAAAAAAAAAAAAAAAAAAAAAAAAAAAAAAAAAAAAAAAAAAAAAAAAAAAAAAAAAAAAAAAAAAAAAAAAAAAAAAAAAAAAAAAAAAAAAAAAAAAAAAAAAAAAAAAAAAAAAAAAAAAAAAAAAAAAAAAAAAAAAAAAAAAAAAAAAAAAAAAAAAAAAAAAAAAAAAAAAAAAAAAAAAAAAAAAAAAAAAAAAAAAAAAAAAAAAAAAAAAAAAAAAAAAAAAAAAAAAAAAAAAAAAAAAAAAAAAAAAAAAAAAAAAAAAAAAAAAAAAAAAAAAAAAAAAAAAAAAAAAAAAAAAAAAAAAAAAAAAAAAAAAAAAAAAAAAAAAAAAAAAAAAAAAAAAAAAAAAAAAAAAAAAAAAAAAAAAAAAAAAAAAAAAAAAAAAAAAAAAAAAAAAAAAAAAAAAAAAAAAAAAAAAAAAAAAAAAAAAAAAAAAAAAAAAAAAAAAAAAAAAAAAAAAAAAAAAAAAAAAAAAAAAAAAAAAAAAAAAAAAAAAAAAAAAAAAAAAAAAAAAAAAAAAAAAAAAAAAAAAAAAAAAAAAAAAAAAAAAAAAAAAAAAAAAAAAAAAAAAAAAAAAAAAAAAAAAAAAAAAAAAAAAAAAAAAAAAAAAAAAAAAAAAAAAAAAAAAAAAAAAAAAAAAAAAAAAAAAAAAAAAAAAAAAAAAAAAAAAAAAAAAAAAAAAAAAAAAAAAAAAAAAAAAAAAAAAAAAAAAAAAAAAAAAAAAAAAAAAAAAAAAAAAAAAAAAAAAAAAAAAAAAAAAAAAAAAAAAAAAAAAAAAAAAAAAAAAAAAAAAAAAAAAAAAAAAAAAAAAAAAAAAAAAAAAAAAAAAAAAAAAAAAAAAAAAAAAAAAAAAAAAAAAAAAAAAAAAAAAAAAAAAAAAAAAAAAAAAAAAAAAAAAAAAAAAAAAAAAAAAAAAAAAAAAAAAAAAAAAAAAAAAAAAAAAAAAAAAAAAAAAAAAAAAAAAAAAAAAAAAAAAAAAAAAAAAAAAAAAAAAAAAAAAAAAAAAAAAAAAAAAAAAAAAAAAAAAAAAAAAAAAAAAAAAAAAAAAAAAAAAAAAAAAAAAAAAAAAAAAAAAAAAAAAAAAAAAAAAAAAAAAAAAAAAAAAAAAAAAAAAAAAAAAAAAAAAAAAAAAAAAAAAAAAAAAAAAAAAAAAAAAAAAAAAAAAAAAAAAAAAAAAAAAAAAAAAAAAAAAAAAAAAAAAAAAAAAAAAAAAAAAAAAAAAAAAAAAAAAAAAAAAAAAAAAAAAAAAAAAAAAAAAAAAAAAAAAAAAAAAAAAAAAAAAAAAAAAAAAAAAAAAAAAAAAAAAAAAAAAAAAAAAAAAAAAAAAAAAAAAAAAAAAAAAAAAAAAAAAAAAAAAAAAAAAAAAAAAAAAAAAAAAAAAAAAAAAAAAAAAAAAAAAAAAAAAAAAAAAAAAAAAAAAAAAAAAAAAAAAAAAAAAAAAAAAAAAAAAAAAAAAAAAAAAAAAAAAAAAAAAAAAAAAAAAAAAAAAAAAAAAAAAAAAAAAAAAAAAAAAAAAAAAAAAAAAAAAAAAAAAAAAAAAAAAAAAAAAAAAAAAAAAAAAAAAAAAAAAAAAAAAAAAAAAAAAAAAAAAAAAAAAAAAAAAAAPZYQB2sNJzLpp1FSat3MkWtzny7R1grYg1Zwt+X/B9mCB9AFiiIMERPumUlb/jrFTfp0vWniF+rDMRCAw8TnI/X3d4=</c2pa:manifest></metadata><title>Vantage</title><defs><radialGradient id="b" gradientUnits="userSpaceOnUse" cx="33" cy="23" r="31"><stop offset="0" stop-color="#f5b82e"></stop><stop offset=".55" stop-color="#f5b82e" stop-opacity=".5"></stop><stop offset="1" stop-color="#f5b82e" stop-opacity="0"></stop></radialGradient><linearGradient id="g" gradientUnits="userSpaceOnUse" x1="6" y1="4" x2="58" y2="60"><stop offset="0" stop-color="#7fe3f2"></stop><stop offset=".5" stop-color="#8fb4ea"></stop><stop offset="1" stop-color="#c3aef0"></stop></linearGradient><linearGradient id="t" gradientUnits="userSpaceOnUse" x1="0" y1="8" x2="0" y2="60"><stop offset="0" stop-color="#ffffff"></stop><stop offset="1" stop-color="#9fbdec"></stop></linearGradient></defs><g transform="translate(0,-8)"><path d="M35 21.5L62 11V33L35 24.5Z" fill="url(#b)"></path><path d="M2 58Q32 34 62 58Z" fill="url(#g)"></path><path d="M28.5 46L29.6 27.5H34.4L35.5 46Z" fill="url(#t)"></path><rect x="28.3" y="25.6" width="7.4" height="1.9" fill="url(#t)"></rect><rect x="29.6" y="21" width="4.8" height="4.6" fill="#f5b82e"></rect><path d="M28.6 21L32 17L35.4 21Z" fill="url(#t)"></path></g><path d="M86.97 38L95.64 11.48L90.66 11.48L86.59 24.40L84.27 33.21L84.16 33.21L81.80 24.40L77.74 11.48L72.61 11.48L81.27 38ZM103.58 38.46C106.54 38.46 108.71 37.13 109.35 34.58L109.58 34.58C109.89 36.63 111.18 38 113.27 38L115.97 38L115.97 34.12L113.99 34.12L113.99 24.78C113.99 20.25 111.14 17.71 105.78 17.71C101.79 17.71 99.47 19.23 98.03 21.51L100.92 24.09C101.87 22.72 103.16 21.58 105.44 21.58C108.02 21.58 109.13 22.88 109.13 25.08L109.13 26.52L105.74 26.52C100.35 26.52 97.27 28.54 97.27 32.60C97.27 36.14 99.55 38.46 103.58 38.46ZM105.21 34.92C103.31 34.92 102.21 34.12 102.21 32.53L102.21 31.88C102.21 30.32 103.46 29.45 106.01 29.45L109.13 29.45L109.13 32.07C109.13 33.93 107.38 34.92 105.21 34.92ZM124.40 38L124.40 24.89C124.40 22.76 126.34 21.70 128.35 21.70C130.67 21.70 131.62 23.14 131.62 25.95L131.62 38L136.49 38L136.49 25.46C136.49 20.52 134.21 17.71 130.14 17.71C127.06 17.71 125.39 19.34 124.59 21.47L124.40 21.47L124.40 18.16L119.54 18.16L119.54 38ZM147.70 38L151.19 38L151.19 34.12L147.43 34.12L147.43 22.04L151.50 22.04L151.50 18.16L147.43 18.16L147.43 12.73L143.06 12.73L143.06 16.11C143.06 17.48 142.60 18.16 141.16 18.16L139.64 18.16L139.64 22.04L142.57 22.04L142.57 32.95C142.57 36.18 144.35 38 147.70 38ZM160.24 38.46C163.20 38.46 165.37 37.13 166.01 34.58L166.24 34.58C166.54 36.63 167.84 38 169.93 38L172.62 38L172.62 34.12L170.65 34.12L170.65 24.78C170.65 20.25 167.80 17.71 162.44 17.71C158.45 17.71 156.13 19.23 154.69 21.51L157.58 24.09C158.53 22.72 159.82 21.58 162.10 21.58C164.68 21.58 165.78 22.88 165.78 25.08L165.78 26.52L162.40 26.52C157.01 26.52 153.93 28.54 153.93 32.60C153.93 36.14 156.21 38.46 160.24 38.46ZM161.87 34.92C159.97 34.92 158.87 34.12 158.87 32.53L158.87 31.88C158.87 30.32 160.12 29.45 162.67 29.45L165.78 29.45L165.78 32.07C165.78 33.93 164.04 34.92 161.87 34.92ZM194.09 39.67C194.09 36.10 192.00 34.01 187.14 34.01L181.82 34.01C180.07 34.01 179.24 33.52 179.24 32.53C179.24 31.65 179.88 31.08 180.64 30.74C181.52 30.97 182.54 31.08 183.68 31.08C189.08 31.08 191.89 28.42 191.89 24.43C191.89 22.00 190.86 20.06 188.81 18.92L188.81 18.39L193.03 18.39L193.03 14.67L189.95 14.67C188.13 14.67 187.14 15.62 187.14 17.56L187.14 18.20C186.15 17.86 184.90 17.71 183.68 17.71C178.32 17.71 175.47 20.41 175.47 24.43C175.47 27.06 176.69 29.11 179.08 30.21L179.08 30.36C177.18 30.78 175.44 31.81 175.44 33.86C175.44 35.45 176.35 36.75 177.98 37.16L177.98 37.58C175.78 37.92 174.45 39.18 174.45 41.38C174.45 44.31 176.99 46.06 183.68 46.06C191.28 46.06 194.09 43.81 194.09 39.67ZM189.53 40.24C189.53 41.91 188.13 42.71 184.97 42.71L182.54 42.71C179.50 42.71 178.36 41.80 178.36 40.28C178.36 39.48 178.67 38.76 179.39 38.23L186.15 38.23C188.62 38.23 189.53 38.99 189.53 40.24ZM183.68 27.78C181.36 27.78 180.11 26.71 180.11 24.74L180.11 24.09C180.11 22.08 181.36 21.05 183.68 21.05C186 21.05 187.25 22.08 187.25 24.09L187.25 24.74C187.25 26.71 186 27.78 183.68 27.78ZM204.32 38.46C208.00 38.46 210.89 37.05 212.52 34.81L209.90 31.88C208.69 33.44 207.24 34.58 204.85 34.58C201.66 34.58 200.02 32.64 200.02 29.79L200.02 29.30L213.21 29.30L213.21 27.70C213.21 22.27 210.36 17.71 204.16 17.71C198.35 17.71 194.97 21.77 194.97 28.04C194.97 34.39 198.46 38.46 204.32 38.46ZM204.24 21.36C206.75 21.36 208.15 23.22 208.15 25.95L208.15 26.30L200.02 26.30L200.02 25.99C200.02 23.26 201.69 21.36 204.24 21.36Z" fill="#ffffff"></path></svg>